<svg width="400" height="300" viewBox="0 0 400 300" fill="none" xmlns="http://www.w3.org/2000/svg">
  <!-- Background -->
  <rect width="400" height="300" fill="#f8fafc"/>

  <!-- Dashboard Container -->
  <rect x="40" y="40" width="320" height="220" rx="16" fill="white" stroke="#e2e8f0" stroke-width="2"/>

  <!-- Header -->
  <rect x="40" y="40" width="320" height="50" fill="#6366f1" style="border-radius: 16px 16px 0 0"/>
  <rect x="60" y="58" width="100" height="6" rx="3" fill="white" opacity="0.9"/>
  <rect x="60" y="68" width="80" height="4" rx="2" fill="white" opacity="0.7"/>

  <!-- Calendar Icon -->
  <rect x="300" y="55" width="20" height="20" rx="3" fill="white" opacity="0.2"/>
  <rect x="302" y="50" width="2" height="8" rx="1" fill="white"/>
  <rect x="314" y="50" width="2" height="8" rx="1" fill="white"/>
  <rect x="304" y="60" width="12" height="2" rx="1" fill="white" opacity="0.8"/>
  <rect x="304" y="64" width="12" height="2" rx="1" fill="white" opacity="0.8"/>
  <rect x="304" y="68" width="8" height="2" rx="1" fill="white" opacity="0.8"/>

  <!-- Daily Summary Cards -->
  <!-- Card 1 - Tasks Completed -->
  <rect x="60" y="110" width="90" height="60" rx="8" fill="#f0f9ff" stroke="#bfdbfe" stroke-width="1"/>
  <circle cx="80" cy="125" r="6" fill="#3b82f6"/>
  <path d="M77 125 L79 127 L83 123" stroke="white" stroke-width="1.5" fill="none" stroke-linecap="round"/>
  <rect x="70" y="140" width="60" height="3" rx="1.5" fill="#3b82f6"/>
  <rect x="70" y="147" width="40" height="2" rx="1" fill="#64748b"/>
  <rect x="70" y="152" width="50" height="2" rx="1" fill="#64748b"/>

  <!-- Card 2 - Messages -->
  <rect x="160" y="110" width="90" height="60" rx="8" fill="#f0fdf4" stroke="#bbf7d0" stroke-width="1"/>
  <rect x="175" y="120" width="16" height="12" rx="2" fill="#22c55e"/>
  <rect x="178" y="124" width="4" height="1" rx="0.5" fill="white"/>
  <rect x="178" y="126" width="6" height="1" rx="0.5" fill="white"/>
  <rect x="178" y="128" width="3" height="1" rx="0.5" fill="white"/>
  <rect x="170" y="140" width="60" height="3" rx="1.5" fill="#22c55e"/>
  <rect x="170" y="147" width="45" height="2" rx="1" fill="#64748b"/>
  <rect x="170" y="152" width="55" height="2" rx="1" fill="#64748b"/>

  <!-- Card 3 - Meetings -->
  <rect x="260" y="110" width="90" height="60" rx="8" fill="#fef3f2" stroke="#fecaca" stroke-width="1"/>
  <rect x="275" y="120" width="16" height="12" rx="2" fill="#ef4444"/>
  <circle cx="279" cy="124" r="1.5" fill="white"/>
  <circle cx="283" cy="124" r="1.5" fill="white"/>
  <circle cx="287" cy="124" r="1.5" fill="white"/>
  <rect x="279" y="127" width="8" height="1" rx="0.5" fill="white"/>
  <rect x="270" y="140" width="60" height="3" rx="1.5" fill="#ef4444"/>
  <rect x="270" y="147" width="50" height="2" rx="1" fill="#64748b"/>
  <rect x="270" y="152" width="40" height="2" rx="1" fill="#64748b"/>

  <!-- AI Summary Section -->
  <rect x="60" y="185" width="290" height="60" rx="8" fill="#fefce8" stroke="#fde047" stroke-width="1"/>

  <!-- AI Brain Icon -->
  <circle cx="85" cy="205" r="12" fill="#eab308"/>
  <path d="M80 200 Q85 195 90 200 Q88 205 85 210 Q82 205 80 200" fill="white"/>
  <circle cx="83" cy="202" r="1" fill="#eab308"/>
  <circle cx="87" cy="202" r="1" fill="#eab308"/>

  <!-- Summary Text Lines -->
  <rect x="110" y="195" width="200" height="4" rx="2" fill="#eab308"/>
  <rect x="110" y="203" width="180" height="3" rx="1.5" fill="#64748b"/>
  <rect x="110" y="210" width="220" height="3" rx="1.5" fill="#64748b"/>
  <rect x="110" y="217" width="160" height="3" rx="1.5" fill="#64748b"/>
  <rect x="110" y="224" width="190" height="3" rx="1.5" fill="#64748b"/>

  <!-- Sparkle effects -->
  <g opacity="0.7">
    <path d="M330 100 L332 105 L337 107 L332 109 L330 114 L328 109 L323 107 L328 105 Z" fill="#fbbf24"/>
    <path d="M350 140 L351 143 L354 144 L351 145 L350 148 L349 145 L346 144 L349 143 Z" fill="#f59e0b"/>
    <path d="M320 200 L321.5 203 L324.5 204.5 L321.5 206 L320 209 L318.5 206 L315.5 204.5 L318.5 203 Z" fill="#fbbf24"/>
  </g>
</svg>
