<svg width="1200" height="675" viewBox="0 0 1200 675" fill="none" xmlns="http://www.w3.org/2000/svg">
  <rect width="1200" height="675" fill="#F8F9FA"/>
  
  <!-- Left Sidebar -->
  <rect x="0" y="0" width="250" height="675" fill="#4A1D66"/>
  
  <!-- Sidebar Header -->
  <rect x="20" y="20" width="210" height="60" rx="10" fill="#5D2A7D"/>
  <circle cx="50" cy="50" r="20" fill="#E6176D"/>
  <rect x="80" y="40" width="120" height="20" rx="4" fill="#FFFFFF" opacity="0.9"/>
  
  <!-- Sidebar Items -->
  <rect x="20" y="100" width="210" height="40" rx="8" fill="#5D2A7D" opacity="0.8"/>
  <circle cx="40" cy="120" r="10" fill="#FFFFFF" opacity="0.6"/>
  <rect x="60" y="115" width="140" height="10" rx="2" fill="#FFFFFF" opacity="0.6"/>
  
  <rect x="20" y="150" width="210" height="40" rx="8" fill="#5D2A7D" opacity="0.8"/>
  <circle cx="40" cy="170" r="10" fill="#FFFFFF" opacity="0.6"/>
  <rect x="60" y="165" width="140" height="10" rx="2" fill="#FFFFFF" opacity="0.6"/>
  
  <rect x="20" y="200" width="210" height="40" rx="8" fill="#E6176D" opacity="0.9"/>
  <circle cx="40" cy="220" r="10" fill="#FFFFFF" opacity="0.9"/>
  <rect x="60" y="215" width="140" height="10" rx="2" fill="#FFFFFF" opacity="0.9"/>
  
  <rect x="20" y="250" width="210" height="40" rx="8" fill="#5D2A7D" opacity="0.8"/>
  <circle cx="40" cy="270" r="10" fill="#FFFFFF" opacity="0.6"/>
  <rect x="60" y="265" width="140" height="10" rx="2" fill="#FFFFFF" opacity="0.6"/>
  
  <!-- Top Navigation Bar -->
  <rect x="250" y="0" width="950" height="70" fill="#4A1D66"/>
  
  <!-- Search Bar -->
  <rect x="280" y="20" width="300" height="30" rx="15" fill="#FFFFFF" opacity="0.2"/>
  <circle cx="295" cy="35" r="8" stroke="#FFFFFF" stroke-width="2" opacity="0.6"/>
  <rect x="310" y="30" width="240" height="10" rx="2" fill="#FFFFFF" opacity="0.4"/>
  
  <!-- User Menu -->
  <circle cx="1150" cy="35" r="20" fill="#F9865A"/>
  <rect x="1100" y="25" width="30" height="20" rx="4" fill="#FFFFFF" opacity="0.6"/>
  <circle cx="1060" cy="35" r="15" stroke="#FFFFFF" stroke-width="2" opacity="0.6"/>
  
  <!-- Main Content Area -->
  <rect x="250" y="70" width="950" height="605" fill="#FFFFFF"/>
  
  <!-- Channel Header -->
  <rect x="280" y="90" width="890" height="50" rx="8" fill="#F8F9FA"/>
  <rect x="300" y="105" width="200" height="20" rx="4" fill="#333333" opacity="0.8"/>
  <rect x="520" y="105" width="100" height="20" rx="4" fill="#E6176D" opacity="0.2"/>
  <rect x="640" y="105" width="100" height="20" rx="4" fill="#F9865A" opacity="0.2"/>
  
  <!-- Messages -->
  <circle cx="300" cy="180" r="20" fill="#4A1D66" opacity="0.2"/>
  <rect x="340" y="165" width="300" height="10" rx="2" fill="#333333" opacity="0.8"/>
  <rect x="340" y="185" width="500" height="10" rx="2" fill="#666666" opacity="0.6"/>
  <rect x="340" y="205" width="450" height="10" rx="2" fill="#666666" opacity="0.6"/>
  
  <circle cx="300" cy="260" r="20" fill="#F9865A" opacity="0.2"/>
  <rect x="340" y="245" width="300" height="10" rx="2" fill="#333333" opacity="0.8"/>
  <rect x="340" y="265" width="550" height="10" rx="2" fill="#666666" opacity="0.6"/>
  <rect x="340" y="285" width="500" height="10" rx="2" fill="#666666" opacity="0.6"/>
  
  <circle cx="300" cy="340" r="20" fill="#E6176D" opacity="0.2"/>
  <rect x="340" y="325" width="300" height="10" rx="2" fill="#333333" opacity="0.8"/>
  <rect x="340" y="345" width="600" height="10" rx="2" fill="#666666" opacity="0.6"/>
  <rect x="340" y="365" width="580" height="10" rx="2" fill="#666666" opacity="0.6"/>
  
  <!-- Rich Content -->
  <rect x="340" y="405" width="700" height="120" rx="8" fill="#F8F9FA"/>
  <rect x="360" y="425" width="200" height="20" rx="4" fill="#333333" opacity="0.8"/>
  <rect x="360" y="455" width="660" height="10" rx="2" fill="#666666" opacity="0.6"/>
  <rect x="360" y="475" width="620" height="10" rx="2" fill="#666666" opacity="0.6"/>
  <rect x="360" y="495" width="640" height="10" rx="2" fill="#666666" opacity="0.6"/>
  
  <!-- Input Area -->
  <rect x="280" y="580" width="890" height="70" rx="8" fill="#F8F9FA"/>
  <rect x="300" y="600" width="830" height="30" rx="15" fill="#FFFFFF" stroke="#E6176D" stroke-width="1"/>
  <circle cx="1150" cy="615" r="15" fill="#E6176D"/>
  <rect x="1145" cy="610" width="10" height="10" rx="1" fill="#FFFFFF"/>
</svg>
